<mxfile host="app.diagrams.net" agent="Mozilla/5.0 (Windows NT 10.0; Win64; x64) AppleWebKit/537.36 (KHTML, like Gecko) Chrome/131.0.0.0 Safari/537.36" version="25.0.3" pages="2">
  <diagram name="Página-1" id="JPK72dOVQUmkVrJxoWfp">
    <mxGraphModel dx="1434" dy="738" grid="1" gridSize="10" guides="1" tooltips="1" connect="1" arrows="1" fold="1" page="1" pageScale="1" pageWidth="827" pageHeight="1169" math="0" shadow="0">
      <root>
        <mxCell id="0" />
        <mxCell id="1" parent="0" />
        <mxCell id="6USw6SZpZXtv-5cpyfaF-1" value="Cliente" style="html=1;whiteSpace=wrap;" vertex="1" parent="1">
          <mxGeometry x="130" y="200" width="110" height="50" as="geometry" />
        </mxCell>
        <mxCell id="6USw6SZpZXtv-5cpyfaF-2" value="Reserva" style="html=1;whiteSpace=wrap;" vertex="1" parent="1">
          <mxGeometry x="400" y="90" width="110" height="50" as="geometry" />
        </mxCell>
        <mxCell id="6USw6SZpZXtv-5cpyfaF-3" value="banco de dados" style="html=1;whiteSpace=wrap;" vertex="1" parent="1">
          <mxGeometry x="710" y="160" width="110" height="50" as="geometry" />
        </mxCell>
        <mxCell id="6USw6SZpZXtv-5cpyfaF-4" value="Email confirmação" style="html=1;whiteSpace=wrap;" vertex="1" parent="1">
          <mxGeometry x="390" y="310" width="110" height="50" as="geometry" />
        </mxCell>
        <mxCell id="6USw6SZpZXtv-5cpyfaF-5" value="" style="endArrow=none;html=1;rounded=0;" edge="1" parent="1" source="6USw6SZpZXtv-5cpyfaF-1" target="6USw6SZpZXtv-5cpyfaF-2">
          <mxGeometry width="50" height="50" relative="1" as="geometry">
            <mxPoint x="390" y="370" as="sourcePoint" />
            <mxPoint x="440" y="320" as="targetPoint" />
          </mxGeometry>
        </mxCell>
        <mxCell id="6USw6SZpZXtv-5cpyfaF-6" value="" style="endArrow=none;html=1;rounded=0;" edge="1" parent="1" source="6USw6SZpZXtv-5cpyfaF-3" target="6USw6SZpZXtv-5cpyfaF-2">
          <mxGeometry width="50" height="50" relative="1" as="geometry">
            <mxPoint x="390" y="370" as="sourcePoint" />
            <mxPoint x="440" y="320" as="targetPoint" />
            <Array as="points">
              <mxPoint x="610" y="110" />
            </Array>
          </mxGeometry>
        </mxCell>
        <mxCell id="6USw6SZpZXtv-5cpyfaF-7" value="" style="endArrow=none;html=1;rounded=0;" edge="1" parent="1" source="6USw6SZpZXtv-5cpyfaF-4" target="6USw6SZpZXtv-5cpyfaF-2">
          <mxGeometry width="50" height="50" relative="1" as="geometry">
            <mxPoint x="446.13636363636374" y="320" as="sourcePoint" />
            <mxPoint x="453.86363636363626" y="150" as="targetPoint" />
          </mxGeometry>
        </mxCell>
        <mxCell id="6USw6SZpZXtv-5cpyfaF-8" value="" style="endArrow=none;html=1;rounded=0;" edge="1" parent="1" source="6USw6SZpZXtv-5cpyfaF-1" target="6USw6SZpZXtv-5cpyfaF-4">
          <mxGeometry width="50" height="50" relative="1" as="geometry">
            <mxPoint x="390" y="370" as="sourcePoint" />
            <mxPoint x="440" y="320" as="targetPoint" />
          </mxGeometry>
        </mxCell>
        <mxCell id="6USw6SZpZXtv-5cpyfaF-9" value="1 :solicictaReserva()" style="text;html=1;align=center;verticalAlign=middle;resizable=0;points=[];autosize=1;strokeColor=none;fillColor=none;" vertex="1" parent="1">
          <mxGeometry x="200" y="120" width="130" height="30" as="geometry" />
        </mxCell>
        <mxCell id="6USw6SZpZXtv-5cpyfaF-10" value="2 :verificaDisponibilidade()" style="text;html=1;align=center;verticalAlign=middle;resizable=0;points=[];autosize=1;strokeColor=none;fillColor=none;" vertex="1" parent="1">
          <mxGeometry x="560" y="80" width="160" height="30" as="geometry" />
        </mxCell>
        <mxCell id="6USw6SZpZXtv-5cpyfaF-11" value="4 [Se disponivel] solicitarMensagem()" style="text;html=1;align=center;verticalAlign=middle;resizable=0;points=[];autosize=1;strokeColor=none;fillColor=none;" vertex="1" parent="1">
          <mxGeometry x="315" y="210" width="220" height="30" as="geometry" />
        </mxCell>
        <mxCell id="6USw6SZpZXtv-5cpyfaF-12" value="5 :enviaEmail()" style="text;html=1;align=center;verticalAlign=middle;resizable=0;points=[];autosize=1;strokeColor=none;fillColor=none;" vertex="1" parent="1">
          <mxGeometry x="240" y="300" width="100" height="30" as="geometry" />
        </mxCell>
        <mxCell id="6USw6SZpZXtv-5cpyfaF-13" value="" style="endArrow=none;html=1;rounded=0;" edge="1" parent="1" source="6USw6SZpZXtv-5cpyfaF-3" target="6USw6SZpZXtv-5cpyfaF-2">
          <mxGeometry width="50" height="50" relative="1" as="geometry">
            <mxPoint x="390" y="370" as="sourcePoint" />
            <mxPoint x="440" y="320" as="targetPoint" />
            <Array as="points">
              <mxPoint x="580" y="190" />
            </Array>
          </mxGeometry>
        </mxCell>
        <mxCell id="6USw6SZpZXtv-5cpyfaF-14" value="" style="endArrow=classic;html=1;rounded=0;" edge="1" parent="1">
          <mxGeometry width="50" height="50" relative="1" as="geometry">
            <mxPoint x="617.5" y="80" as="sourcePoint" />
            <mxPoint x="662.5" y="80" as="targetPoint" />
          </mxGeometry>
        </mxCell>
        <mxCell id="6USw6SZpZXtv-5cpyfaF-15" value="3 :retornaStatus()" style="text;html=1;align=center;verticalAlign=middle;resizable=0;points=[];autosize=1;strokeColor=none;fillColor=none;" vertex="1" parent="1">
          <mxGeometry x="540" y="188" width="120" height="30" as="geometry" />
        </mxCell>
        <mxCell id="6USw6SZpZXtv-5cpyfaF-16" value="" style="endArrow=classic;html=1;rounded=0;" edge="1" parent="1">
          <mxGeometry width="50" height="50" relative="1" as="geometry">
            <mxPoint x="622.5" y="218" as="sourcePoint" />
            <mxPoint x="577.5" y="218" as="targetPoint" />
          </mxGeometry>
        </mxCell>
        <mxCell id="6USw6SZpZXtv-5cpyfaF-18" value="" style="endArrow=classic;html=1;rounded=0;" edge="1" parent="1">
          <mxGeometry width="50" height="50" relative="1" as="geometry">
            <mxPoint x="424.5" y="240" as="sourcePoint" />
            <mxPoint x="424.5" y="280" as="targetPoint" />
          </mxGeometry>
        </mxCell>
      </root>
    </mxGraphModel>
  </diagram>
  <diagram id="4CLI2Sxe1QOBUx-ZBVL-" name="Página-2">
    <mxGraphModel dx="1434" dy="738" grid="1" gridSize="10" guides="1" tooltips="1" connect="1" arrows="1" fold="1" page="1" pageScale="1" pageWidth="827" pageHeight="1169" math="0" shadow="0">
      <root>
        <mxCell id="0" />
        <mxCell id="1" parent="0" />
        <mxCell id="U-86wQdiHuHKDz-7rOfc-1" value=":Sensor temperatura" style="html=1;whiteSpace=wrap;" parent="1" vertex="1">
          <mxGeometry x="80" y="240" width="110" height="50" as="geometry" />
        </mxCell>
        <mxCell id="U-86wQdiHuHKDz-7rOfc-2" value=":controle" style="html=1;whiteSpace=wrap;" parent="1" vertex="1">
          <mxGeometry x="359" y="80" width="110" height="50" as="geometry" />
        </mxCell>
        <mxCell id="U-86wQdiHuHKDz-7rOfc-3" value=":Servidor central" style="html=1;whiteSpace=wrap;" parent="1" vertex="1">
          <mxGeometry x="640" y="240" width="110" height="50" as="geometry" />
        </mxCell>
        <mxCell id="U-86wQdiHuHKDz-7rOfc-4" value=":Sistemas de alertas" style="html=1;whiteSpace=wrap;" parent="1" vertex="1">
          <mxGeometry x="359" y="400" width="110" height="50" as="geometry" />
        </mxCell>
        <mxCell id="U-86wQdiHuHKDz-7rOfc-6" value="" style="endArrow=none;html=1;rounded=0;" parent="1" source="U-86wQdiHuHKDz-7rOfc-1" target="U-86wQdiHuHKDz-7rOfc-2" edge="1">
          <mxGeometry width="50" height="50" relative="1" as="geometry">
            <mxPoint x="390" y="410" as="sourcePoint" />
            <mxPoint x="440" y="360" as="targetPoint" />
          </mxGeometry>
        </mxCell>
        <mxCell id="U-86wQdiHuHKDz-7rOfc-7" value="1 enviaDados()" style="text;html=1;align=center;verticalAlign=middle;resizable=0;points=[];autosize=1;strokeColor=none;fillColor=none;rotation=-30;" parent="1" vertex="1">
          <mxGeometry x="210" y="160" width="100" height="30" as="geometry" />
        </mxCell>
        <mxCell id="U-86wQdiHuHKDz-7rOfc-8" value="" style="endArrow=classic;html=1;rounded=0;" parent="1" edge="1">
          <mxGeometry width="50" height="50" relative="1" as="geometry">
            <mxPoint x="230" y="170" as="sourcePoint" />
            <mxPoint x="280" y="140" as="targetPoint" />
          </mxGeometry>
        </mxCell>
        <mxCell id="U-86wQdiHuHKDz-7rOfc-10" value="" style="endArrow=none;html=1;rounded=0;" parent="1" source="U-86wQdiHuHKDz-7rOfc-3" target="U-86wQdiHuHKDz-7rOfc-2" edge="1">
          <mxGeometry width="50" height="50" relative="1" as="geometry">
            <mxPoint x="390" y="410" as="sourcePoint" />
            <mxPoint x="440" y="360" as="targetPoint" />
          </mxGeometry>
        </mxCell>
        <mxCell id="U-86wQdiHuHKDz-7rOfc-11" value="2 [se nesc. ] enviaAlerta()" style="text;html=1;align=center;verticalAlign=middle;resizable=0;points=[];autosize=1;strokeColor=none;fillColor=none;rotation=30;" parent="1" vertex="1">
          <mxGeometry x="480" y="150" width="160" height="30" as="geometry" />
        </mxCell>
        <mxCell id="U-86wQdiHuHKDz-7rOfc-12" value="" style="endArrow=classic;html=1;rounded=0;" parent="1" edge="1">
          <mxGeometry width="50" height="50" relative="1" as="geometry">
            <mxPoint x="540" y="130" as="sourcePoint" />
            <mxPoint x="590" y="160" as="targetPoint" />
          </mxGeometry>
        </mxCell>
        <mxCell id="U-86wQdiHuHKDz-7rOfc-13" value="" style="endArrow=none;html=1;rounded=0;" parent="1" source="U-86wQdiHuHKDz-7rOfc-4" target="U-86wQdiHuHKDz-7rOfc-3" edge="1">
          <mxGeometry width="50" height="50" relative="1" as="geometry">
            <mxPoint x="390" y="410" as="sourcePoint" />
            <mxPoint x="440" y="360" as="targetPoint" />
          </mxGeometry>
        </mxCell>
        <mxCell id="U-86wQdiHuHKDz-7rOfc-14" value="3 repassaAlertas()" style="text;html=1;align=center;verticalAlign=middle;resizable=0;points=[];autosize=1;strokeColor=none;fillColor=none;rotation=-30;" parent="1" vertex="1">
          <mxGeometry x="480" y="320" width="120" height="30" as="geometry" />
        </mxCell>
        <mxCell id="U-86wQdiHuHKDz-7rOfc-15" value="" style="endArrow=classic;html=1;rounded=0;" parent="1" edge="1">
          <mxGeometry width="50" height="50" relative="1" as="geometry">
            <mxPoint x="550" y="310" as="sourcePoint" />
            <mxPoint x="500" y="340" as="targetPoint" />
          </mxGeometry>
        </mxCell>
      </root>
    </mxGraphModel>
  </diagram>
</mxfile>
